<svg width="70" height="16" viewBox="0 0 70 16" fill="none" xmlns="http://www.w3.org/2000/svg">
<path d="M6.67199 15.792C6.41599 15.76 5.88799 15.704 5.08799 15.624C4.30399 15.544 3.62399 15.504 3.04799 15.504C2.51999 15.504 1.92799 15.536 1.27199 15.6C0.615993 15.664 0.191993 15.712 -6.64592e-06 15.744L0.143993 14.136C0.831993 14.024 1.29599 13.824 1.53599 13.536C1.77599 13.248 1.89599 12.768 1.89599 12.096V2.952C1.89599 2.44 1.84799 2.096 1.75199 1.92C1.65599 1.744 1.45599 1.656 1.15199 1.656C0.975993 1.656 0.807993 1.664 0.647993 1.68C0.487993 1.696 0.383993 1.704 0.335993 1.704L0.215993 1.488L0.407993 0.0239968C0.631993 0.0239968 1.04799 0.0399971 1.65599 0.0719976C2.26399 0.0879974 2.85599 0.0959973 3.43199 0.0959973C4.13599 0.0959973 4.87199 0.0879974 5.63999 0.0719976C6.40799 0.0399971 6.93599 0.0159969 7.22399 -2.86102e-06C8.82399 -2.86102e-06 10.208 0.287997 11.376 0.863997C12.544 1.44 13.44 2.264 14.064 3.336C14.688 4.408 15 5.688 15 7.176C15 8.84 14.64 10.328 13.92 11.64C13.216 12.952 12.232 13.976 10.968 14.712C9.70399 15.432 8.27199 15.792 6.67199 15.792ZM5.92799 2.016C5.67199 2.016 5.49599 2.056 5.39999 2.136C5.30399 2.216 5.24799 2.368 5.23199 2.592C5.02399 7.056 4.91999 10.2 4.91999 12.024C4.91999 12.504 4.97599 12.872 5.08799 13.128C5.19999 13.368 5.39999 13.536 5.68799 13.632C5.99199 13.728 6.42399 13.776 6.98399 13.776C8.39199 13.776 9.46399 13.28 10.2 12.288C10.952 11.296 11.328 9.84 11.328 7.92C11.328 5.888 10.88 4.4 9.98399 3.456C9.10399 2.496 7.75199 2.016 5.92799 2.016ZM22.1674 15.504L22.2634 14.256C22.7274 14.208 23.0554 14.168 23.2474 14.136C23.4394 14.088 23.5674 14.024 23.6314 13.944C23.7114 13.864 23.7514 13.744 23.7514 13.584C23.7514 13.408 23.7194 13.224 23.6554 13.032L23.3194 11.784C22.9834 11.768 22.3994 11.76 21.5674 11.76C21.1994 11.76 20.5914 11.8 19.7434 11.88L19.3114 13.128C19.2474 13.368 19.2154 13.544 19.2154 13.656C19.2154 13.864 19.2714 14.008 19.3834 14.088C19.5114 14.152 19.7434 14.184 20.0794 14.184H20.8234L20.9434 14.352L20.7994 15.6C20.6074 15.584 20.1994 15.56 19.5754 15.528C18.9674 15.512 18.3994 15.504 17.8714 15.504C17.3114 15.504 16.7994 15.512 16.3354 15.528C15.8874 15.544 15.5914 15.552 15.4474 15.552L15.5914 14.208C15.8794 14.16 16.1114 14.048 16.2874 13.872C16.4794 13.68 16.6554 13.4 16.8154 13.032L20.2714 3.576L23.7994 3.264L24.0394 3.408C24.2314 4.128 24.6394 5.6 25.2634 7.824C25.8874 10.048 26.3994 11.752 26.7994 12.936C26.9274 13.368 27.0954 13.68 27.3034 13.872C27.5274 14.064 27.8474 14.176 28.2634 14.208L28.3594 14.352L28.2154 15.552C28.0394 15.552 27.7034 15.544 27.2074 15.528C26.7274 15.512 26.2314 15.504 25.7194 15.504C24.9994 15.504 24.2954 15.52 23.6074 15.552C22.9194 15.6 22.4794 15.632 22.2874 15.648L22.1674 15.504ZM21.5674 10.08C22.0954 10.08 22.5594 10.056 22.9594 10.008L21.8794 6.12H21.5914L20.2714 10.08H21.5674ZM38.8701 15.792C37.9421 15.792 37.2141 15.216 36.6861 14.064L35.0781 10.92H33.7341L33.7101 12.768C33.7101 13.2 33.7421 13.512 33.8061 13.704C33.8701 13.88 33.9901 14 34.1661 14.064C34.3581 14.128 34.6781 14.168 35.1261 14.184L35.2221 14.304L35.0061 15.576C34.7501 15.56 34.2941 15.544 33.6381 15.528C32.9981 15.528 32.4381 15.528 31.9581 15.528C31.4461 15.528 30.9181 15.544 30.3741 15.576C29.8301 15.608 29.4781 15.632 29.3181 15.648L29.4861 14.256C30.0301 14.192 30.3901 14.056 30.5661 13.848C30.7581 13.624 30.8541 13.248 30.8541 12.72L30.8781 5.688C30.8781 5.352 30.8301 5.128 30.7341 5.016C30.6541 4.888 30.5021 4.824 30.2781 4.824L29.5821 4.848L29.4381 4.68L29.6301 3.456L32.1741 3.48C32.7341 3.48 33.3341 3.472 33.9741 3.456C34.6141 3.424 35.0621 3.4 35.3181 3.384C36.9021 3.384 38.1101 3.664 38.9421 4.224C39.7741 4.784 40.1901 5.6 40.1901 6.672C40.1901 7.408 39.9661 8.08 39.5181 8.688C39.0701 9.296 38.4221 9.808 37.5741 10.224L39.1821 12.696C39.5661 13.256 39.9261 13.664 40.2621 13.92C40.5981 14.176 40.9581 14.304 41.3421 14.304L41.5101 14.52L41.3421 15.6L38.8701 15.792ZM35.5101 9.24C36.5821 8.856 37.1181 8.12 37.1181 7.032C37.1181 6.392 36.8861 5.92 36.4221 5.616C35.9581 5.296 35.2461 5.136 34.2861 5.136C34.1581 5.136 34.0701 5.168 34.0221 5.232C33.9901 5.28 33.9661 5.392 33.9501 5.568C33.8541 6.88 33.8061 8.04 33.8061 9.048L35.5101 9.24ZM52.3031 5.616C52.2871 5.312 52.2311 5.104 52.1351 4.992C52.0391 4.88 51.8791 4.824 51.6551 4.824H50.9831L50.9111 4.656L51.0311 3.408C51.2231 3.424 51.5831 3.44 52.1111 3.456C52.6391 3.472 53.1751 3.48 53.7191 3.48C54.2471 3.48 54.7431 3.472 55.2071 3.456C55.6711 3.424 55.9831 3.4 56.1431 3.384L56.0471 4.752C55.6151 4.816 55.3031 4.936 55.1111 5.112C54.9351 5.288 54.8391 5.56 54.8231 5.928L54.5351 15.696L52.1591 15.936C50.9431 14.144 49.7991 12.512 48.7271 11.04C47.6711 9.552 46.9991 8.608 46.7111 8.208H46.4951V13.32C46.4951 13.656 46.5431 13.888 46.6391 14.016C46.7511 14.144 46.9351 14.208 47.1911 14.208C47.3351 14.208 47.4871 14.2 47.6471 14.184C47.8231 14.168 47.9431 14.16 48.0071 14.16L48.1271 14.28L47.9111 15.576C47.7191 15.576 47.3591 15.56 46.8311 15.528C46.3031 15.512 45.7831 15.504 45.2711 15.504C44.8071 15.504 44.3031 15.52 43.7591 15.552C43.2311 15.6 42.8871 15.632 42.7271 15.648L42.8951 14.28C43.2951 14.232 43.5831 14.12 43.7591 13.944C43.9351 13.768 44.0311 13.488 44.0471 13.104L44.3111 5.952C44.3111 5.552 44.2071 5.28 43.9991 5.136C43.7911 4.976 43.3671 4.856 42.7271 4.776L42.5591 4.584L42.7031 3.384C42.8471 3.4 43.1751 3.424 43.6871 3.456C44.1991 3.472 44.6711 3.48 45.1031 3.48C45.5671 3.48 45.9911 3.472 46.3751 3.456C46.7591 3.44 47.0151 3.424 47.1431 3.408C48.1351 4.96 49.1351 6.456 50.1431 7.896C51.1671 9.32 51.8311 10.232 52.1351 10.632H52.3511L52.3031 5.616ZM63.0658 15.504L63.1618 14.256C63.6258 14.208 63.9538 14.168 64.1458 14.136C64.3378 14.088 64.4658 14.024 64.5298 13.944C64.6098 13.864 64.6498 13.744 64.6498 13.584C64.6498 13.408 64.6178 13.224 64.5538 13.032L64.2178 11.784C63.8818 11.768 63.2978 11.76 62.4658 11.76C62.0978 11.76 61.4898 11.8 60.6418 11.88L60.2098 13.128C60.1458 13.368 60.1138 13.544 60.1138 13.656C60.1138 13.864 60.1698 14.008 60.2818 14.088C60.4098 14.152 60.6418 14.184 60.9778 14.184H61.7218L61.8418 14.352L61.6978 15.6C61.5058 15.584 61.0978 15.56 60.4738 15.528C59.8658 15.512 59.2978 15.504 58.7698 15.504C58.2098 15.504 57.6978 15.512 57.2338 15.528C56.7858 15.544 56.4898 15.552 56.3458 15.552L56.4898 14.208C56.7778 14.16 57.0098 14.048 57.1858 13.872C57.3778 13.68 57.5538 13.4 57.7138 13.032L61.1698 3.576L64.6978 3.264L64.9378 3.408C65.1298 4.128 65.5378 5.6 66.1618 7.824C66.7858 10.048 67.2978 11.752 67.6978 12.936C67.8258 13.368 67.9938 13.68 68.2018 13.872C68.4258 14.064 68.7458 14.176 69.1618 14.208L69.2578 14.352L69.1138 15.552C68.9378 15.552 68.6018 15.544 68.1058 15.528C67.6258 15.512 67.1298 15.504 66.6178 15.504C65.8978 15.504 65.1938 15.52 64.5058 15.552C63.8178 15.6 63.3778 15.632 63.1858 15.648L63.0658 15.504ZM62.4658 10.08C62.9938 10.08 63.4578 10.056 63.8578 10.008L62.7778 6.12H62.4898L61.1698 10.08H62.4658Z" fill="white"/>
</svg>
