<svg width="43" height="42" viewBox="0 0 43 42" fill="none" xmlns="http://www.w3.org/2000/svg">
<path d="M2.79391 22C2.79391 22 2.76601 20.1453 2.79391 20.1738C2.82172 18.3763 17.9992 2.74979 21.5 2.82617C25.0008 2.90241 40.2061 18.3193 40.2061 20.1738C40.1782 20.2024 40.2061 22 40.2061 22H41.9876C41.9876 22 42.0154 20.1453 41.9876 20.1738C42.0433 17.4061 26.3585 0.951442 21.5 1.00011C16.2515 1.05253 0.984501 17.3777 1.0124 20.1738C0.984501 20.1738 1.0124 22 1.0124 22H2.79391Z" stroke="white" stroke-width="2"/>
<path d="M8.81257 20V21.7348C8.81257 21.7348 10.6665 35.624 14.2501 37.3472C17.8467 39.8766 25.2483 39.9221 28.7499 37.3472C32.2695 35.6431 34.1875 21.7348 34.1875 21.7348V20H36V21.7348C36 21.7348 34.1249 37.5221 28.7499 39.0819C24.208 41.6846 17.9132 41.5937 13.3437 39.0819C9.60944 37.361 7 21.7348 7 21.7348V20H8.81257Z" stroke="white" stroke-width="2"/>
</svg>
